<svg xmlns="http://www.w3.org/2000/svg" viewBox="0 0 1250 700" width="1250" height="700" style="background-color: #FFFFFF;">
<!-- Se asignan -->
<path d="M 310 70 L 650 70" fill="none" stroke="#94A3B8" stroke-width="2" />
<!-- PK FK Lines -->
<path d="M 310 102 L 330 102 L 330 567 L 350 567" fill="none" stroke="#94A3B8" stroke-width="2" stroke-linejoin="round" />
<path d="M 650 102 L 630 102 L 630 599 L 610 599" fill="none" stroke="#94A3B8" stroke-width="2" stroke-linejoin="round" />
<rect x="440" y="60" width="80" height="20" fill="white" rx="4" stroke="#CBD5E1" />
<text x="480" y="74" fill="#1E1B4B" font-family="Segoe UI, sans-serif" font-weight="600" font-size="13" text-anchor="middle">Se asignan</text>
<rect x="318" y="51" width="14" height="16" fill="white" rx="3"/><text x="320" y="63" fill="#334155" font-family="Segoe UI, sans-serif" font-weight="bold" font-size="13">N</text>
<rect x="623" y="51" width="14" height="16" fill="white" rx="3"/><text x="625" y="63" fill="#334155" font-family="Segoe UI, sans-serif" font-weight="bold" font-size="13">M</text>
<rect x="310" y="83" width="14" height="16" fill="white" rx="3"/><text x="312" y="95" fill="#334155" font-family="Segoe UI, sans-serif" font-weight="bold" font-size="13">1</text>
<rect x="333" y="546" width="14" height="16" fill="white" rx="3"/><text x="335" y="558" fill="#334155" font-family="Segoe UI, sans-serif" font-weight="bold" font-size="13">N</text>
<rect x="633" y="83" width="14" height="16" fill="white" rx="3"/><text x="635" y="95" fill="#334155" font-family="Segoe UI, sans-serif" font-weight="bold" font-size="13">1</text>
<rect x="613" y="579" width="14" height="16" fill="white" rx="3"/><text x="615" y="591" fill="#334155" font-family="Segoe UI, sans-serif" font-weight="bold" font-size="13">M</text>
<rect x="50" y="50" width="260" height="452" rx="6" fill="#F4F4F5" stroke="#CBD5E1" filter="drop-shadow(0px 2px 4px rgba(0,0,0,0.05))" />
<path d="M 50 56 Q 50 50 56 50 L 304 50 Q 310 50 310 56 L 310 86 L 50 86 Z" fill="#1E1B4B" />
<text x="65" y="73" fill="white" font-family="Segoe UI, sans-serif" font-weight="600" font-size="14">EM_EMPLEADOS</text>
<rect x="50" y="86" width="260" height="32" fill="#E2E8F0" />
<line x1="50" y1="118" x2="310" y2="118" stroke="#E2E8F0" stroke-width="1" />
<text x="65" y="107" font-family="Segoe UI, sans-serif" font-size="11" fill="#F59E0B">🔑</text>
<text x="85" y="107" font-family="Segoe UI, sans-serif" font-size="13" font-weight="600" fill="#0F172A">ID_EMPLEADO</text>
<text x="295" y="107" font-family="monospace" font-size="13" fill="#64748B" text-anchor="end">int</text>
<line x1="50" y1="150" x2="310" y2="150" stroke="#E2E8F0" stroke-width="1" />
<text x="65" y="139" font-family="Segoe UI, sans-serif" font-size="13" font-weight="normal" fill="#0F172A">TX_NIF</text>
<text x="295" y="139" font-family="monospace" font-size="13" fill="#64748B" text-anchor="end">varchar(15)</text>
<line x1="50" y1="182" x2="310" y2="182" stroke="#E2E8F0" stroke-width="1" />
<text x="65" y="171" font-family="Segoe UI, sans-serif" font-size="13" font-weight="normal" fill="#0F172A">TX_NOMBRE</text>
<text x="295" y="171" font-family="monospace" font-size="13" fill="#64748B" text-anchor="end">varchar(50)</text>
<line x1="50" y1="214" x2="310" y2="214" stroke="#E2E8F0" stroke-width="1" />
<text x="65" y="203" font-family="Segoe UI, sans-serif" font-size="13" font-weight="normal" fill="#0F172A">TX_APELLIDO1</text>
<text x="295" y="203" font-family="monospace" font-size="13" fill="#64748B" text-anchor="end">varchar(50)</text>
<line x1="50" y1="246" x2="310" y2="246" stroke="#E2E8F0" stroke-width="1" />
<text x="65" y="235" font-family="Segoe UI, sans-serif" font-size="13" font-weight="normal" fill="#0F172A">TX_APELLIDO2</text>
<text x="295" y="235" font-family="monospace" font-size="13" fill="#64748B" text-anchor="end">varchar(50)</text>
<line x1="50" y1="278" x2="310" y2="278" stroke="#E2E8F0" stroke-width="1" />
<text x="65" y="267" font-family="Segoe UI, sans-serif" font-size="13" font-weight="normal" fill="#0F172A">F_NACIMIENTO</text>
<text x="295" y="267" font-family="monospace" font-size="13" fill="#64748B" text-anchor="end">date</text>
<line x1="50" y1="310" x2="310" y2="310" stroke="#E2E8F0" stroke-width="1" />
<text x="65" y="299" font-family="Segoe UI, sans-serif" font-size="13" font-weight="normal" fill="#0F172A">N_TELEFONO1</text>
<text x="295" y="299" font-family="monospace" font-size="13" fill="#64748B" text-anchor="end">varchar(20)</text>
<line x1="50" y1="342" x2="310" y2="342" stroke="#E2E8F0" stroke-width="1" />
<text x="65" y="331" font-family="Segoe UI, sans-serif" font-size="13" font-weight="normal" fill="#0F172A">N_TELEFONO2</text>
<text x="295" y="331" font-family="monospace" font-size="13" fill="#64748B" text-anchor="end">varchar(20)</text>
<line x1="50" y1="374" x2="310" y2="374" stroke="#E2E8F0" stroke-width="1" />
<text x="65" y="363" font-family="Segoe UI, sans-serif" font-size="13" font-weight="normal" fill="#0F172A">TX_EMAIL</text>
<text x="295" y="363" font-family="monospace" font-size="13" fill="#64748B" text-anchor="end">varchar(100)</text>
<line x1="50" y1="406" x2="310" y2="406" stroke="#E2E8F0" stroke-width="1" />
<text x="65" y="395" font-family="Segoe UI, sans-serif" font-size="13" font-weight="normal" fill="#0F172A">F_ALTA</text>
<text x="295" y="395" font-family="monospace" font-size="13" fill="#64748B" text-anchor="end">date</text>
<line x1="50" y1="438" x2="310" y2="438" stroke="#E2E8F0" stroke-width="1" />
<text x="65" y="427" font-family="Segoe UI, sans-serif" font-size="13" font-weight="normal" fill="#0F172A">F_BAJA</text>
<text x="295" y="427" font-family="monospace" font-size="13" fill="#64748B" text-anchor="end">date</text>
<line x1="50" y1="470" x2="310" y2="470" stroke="#E2E8F0" stroke-width="1" />
<text x="65" y="459" font-family="Segoe UI, sans-serif" font-size="13" font-weight="normal" fill="#0F172A">CX_EDOCIVIL</text>
<text x="295" y="459" font-family="monospace" font-size="13" fill="#64748B" text-anchor="end">varchar(20)</text>
<text x="65" y="491" font-family="Segoe UI, sans-serif" font-size="13" font-weight="normal" fill="#0F172A">B_FORMACIONU</text>
<text x="295" y="491" font-family="monospace" font-size="13" fill="#64748B" text-anchor="end">varchar(2)</text>
<rect x="650" y="50" width="260" height="260" rx="6" fill="#F4F4F5" stroke="#CBD5E1" filter="drop-shadow(0px 2px 4px rgba(0,0,0,0.05))" />
<path d="M 650 56 Q 650 50 656 50 L 904 50 Q 910 50 910 56 L 910 86 L 650 86 Z" fill="#1E1B4B" />
<text x="665" y="73" fill="white" font-family="Segoe UI, sans-serif" font-weight="600" font-size="14">PR_PROYECTOS</text>
<rect x="650" y="86" width="260" height="32" fill="#E2E8F0" />
<line x1="650" y1="118" x2="910" y2="118" stroke="#E2E8F0" stroke-width="1" />
<text x="665" y="107" font-family="Segoe UI, sans-serif" font-size="11" fill="#F59E0B">🔑</text>
<text x="685" y="107" font-family="Segoe UI, sans-serif" font-size="13" font-weight="600" fill="#0F172A">ID_PROYECTO</text>
<text x="895" y="107" font-family="monospace" font-size="13" fill="#64748B" text-anchor="end">int</text>
<line x1="650" y1="150" x2="910" y2="150" stroke="#E2E8F0" stroke-width="1" />
<text x="665" y="139" font-family="Segoe UI, sans-serif" font-size="13" font-weight="normal" fill="#0F172A">TX_DESCRIPCION</text>
<text x="895" y="139" font-family="monospace" font-size="13" fill="#64748B" text-anchor="end">varchar(255)</text>
<line x1="650" y1="182" x2="910" y2="182" stroke="#E2E8F0" stroke-width="1" />
<text x="665" y="171" font-family="Segoe UI, sans-serif" font-size="13" font-weight="normal" fill="#0F172A">F_INICIO</text>
<text x="895" y="171" font-family="monospace" font-size="13" fill="#64748B" text-anchor="end">date</text>
<line x1="650" y1="214" x2="910" y2="214" stroke="#E2E8F0" stroke-width="1" />
<text x="665" y="203" font-family="Segoe UI, sans-serif" font-size="13" font-weight="normal" fill="#0F172A">F_FIN</text>
<text x="895" y="203" font-family="monospace" font-size="13" fill="#64748B" text-anchor="end">date</text>
<line x1="650" y1="246" x2="910" y2="246" stroke="#E2E8F0" stroke-width="1" />
<text x="665" y="235" font-family="Segoe UI, sans-serif" font-size="13" font-weight="normal" fill="#0F172A">F_BAJA</text>
<text x="895" y="235" font-family="monospace" font-size="13" fill="#64748B" text-anchor="end">date</text>
<line x1="650" y1="278" x2="910" y2="278" stroke="#E2E8F0" stroke-width="1" />
<text x="665" y="267" font-family="Segoe UI, sans-serif" font-size="13" font-weight="normal" fill="#0F172A">TX_LUGAR</text>
<text x="895" y="267" font-family="monospace" font-size="13" fill="#64748B" text-anchor="end">varchar(100)</text>
<text x="665" y="299" font-family="Segoe UI, sans-serif" font-size="13" font-weight="normal" fill="#0F172A">TX_OBSERVACIONES</text>
<text x="895" y="299" font-family="monospace" font-size="13" fill="#64748B" text-anchor="end">varchar(255)</text>
<rect x="950" y="50" width="260" height="228" rx="6" fill="#F4F4F5" stroke="#CBD5E1" filter="drop-shadow(0px 2px 4px rgba(0,0,0,0.05))" />
<path d="M 950 56 Q 950 50 956 50 L 1204 50 Q 1210 50 1210 56 L 1210 86 L 950 86 Z" fill="#1E1B4B" />
<text x="965" y="73" fill="white" font-family="Segoe UI, sans-serif" font-weight="600" font-size="14">US_USUARIOS</text>
<rect x="950" y="86" width="260" height="32" fill="#E2E8F0" />
<line x1="950" y1="118" x2="1210" y2="118" stroke="#E2E8F0" stroke-width="1" />
<text x="965" y="107" font-family="Segoe UI, sans-serif" font-size="11" fill="#F59E0B">🔑</text>
<text x="985" y="107" font-family="Segoe UI, sans-serif" font-size="13" font-weight="600" fill="#0F172A">ID_USUARIO</text>
<text x="1195" y="107" font-family="monospace" font-size="13" fill="#64748B" text-anchor="end">int</text>
<line x1="950" y1="150" x2="1210" y2="150" stroke="#E2E8F0" stroke-width="1" />
<text x="965" y="139" font-family="Segoe UI, sans-serif" font-size="13" font-weight="normal" fill="#0F172A">TX_EMAIL</text>
<text x="1195" y="139" font-family="monospace" font-size="13" fill="#64748B" text-anchor="end">varchar(100)</text>
<line x1="950" y1="182" x2="1210" y2="182" stroke="#E2E8F0" stroke-width="1" />
<text x="965" y="171" font-family="Segoe UI, sans-serif" font-size="13" font-weight="normal" fill="#0F172A">TX_PASSWORD</text>
<text x="1195" y="171" font-family="monospace" font-size="13" fill="#64748B" text-anchor="end">varchar(255)</text>
<line x1="950" y1="214" x2="1210" y2="214" stroke="#E2E8F0" stroke-width="1" />
<text x="965" y="203" font-family="Segoe UI, sans-serif" font-size="13" font-weight="normal" fill="#0F172A">TX_ROLE</text>
<text x="1195" y="203" font-family="monospace" font-size="13" fill="#64748B" text-anchor="end">varchar(20)</text>
<line x1="950" y1="246" x2="1210" y2="246" stroke="#E2E8F0" stroke-width="1" />
<text x="965" y="235" font-family="Segoe UI, sans-serif" font-size="13" font-weight="normal" fill="#0F172A">F_ALTA</text>
<text x="1195" y="235" font-family="monospace" font-size="13" fill="#64748B" text-anchor="end">date</text>
<text x="965" y="267" font-family="Segoe UI, sans-serif" font-size="13" font-weight="normal" fill="#0F172A">TX_NOMBRE</text>
<text x="1195" y="267" font-family="monospace" font-size="13" fill="#64748B" text-anchor="end">varchar(50)</text>
<rect x="350" y="515" width="260" height="132" rx="6" fill="#F4F4F5" stroke="#CBD5E1" filter="drop-shadow(0px 2px 4px rgba(0,0,0,0.05))" />
<path d="M 350 521 Q 350 515 356 515 L 604 515 Q 610 515 610 521 L 610 551 L 350 551 Z" fill="#1E1B4B" />
<text x="365" y="538" fill="white" font-family="Segoe UI, sans-serif" font-weight="600" font-size="14">PR_EMPLEADOS_PROYECTO</text>
<rect x="350" y="551" width="260" height="32" fill="#E2E8F0" />
<line x1="350" y1="583" x2="610" y2="583" stroke="#E2E8F0" stroke-width="1" />
<text x="365" y="572" font-family="Segoe UI, sans-serif" font-size="11" fill="#F59E0B">🔑</text>
<text x="385" y="572" font-family="Segoe UI, sans-serif" font-size="13" font-weight="600" fill="#0F172A">ID_EMPLEADO</text>
<text x="595" y="572" font-family="monospace" font-size="13" fill="#64748B" text-anchor="end">int</text>
<rect x="350" y="583" width="260" height="32" fill="#E2E8F0" />
<line x1="350" y1="615" x2="610" y2="615" stroke="#E2E8F0" stroke-width="1" />
<text x="365" y="604" font-family="Segoe UI, sans-serif" font-size="11" fill="#F59E0B">🔑</text>
<text x="385" y="604" font-family="Segoe UI, sans-serif" font-size="13" font-weight="600" fill="#0F172A">ID_PROYECTO</text>
<text x="595" y="604" font-family="monospace" font-size="13" fill="#64748B" text-anchor="end">int</text>
<text x="365" y="636" font-family="Segoe UI, sans-serif" font-size="13" font-weight="normal" fill="#0F172A">F_ALTA</text>
<text x="595" y="636" font-family="monospace" font-size="13" fill="#64748B" text-anchor="end">date</text>
<rect x="830" y="520" width="380" height="126" fill="#F8FAFC" rx="6" stroke="#CBD5E1" />
<path d="M 830 526 Q 830 520 836 520 L 834 520 L 834 646 L 836 646 Q 830 646 830 640 Z" fill="#4F46E5" />
<text x="850" y="550" fill="#1E1B4B" font-family="Segoe UI, sans-serif" font-weight="700" font-size="14">ℹ️ Aclaración del Modelo Relacional</text>
<text x="850" y="575" fill="#475569" font-family="Segoe UI, sans-serif" font-size="13">La relación teórica de muchos a muchos (N:M) <tspan font-style="italic">"Se asignan"</tspan></text>
<text x="850" y="595" fill="#475569" font-family="Segoe UI, sans-serif" font-size="13">se resuelve físicamente creando la tabla intermedia</text>
<text x="850" y="615" fill="#475569" font-family="Segoe UI, sans-serif" font-size="13"><tspan font-weight="700">PR_EMPLEADOS_PROYECTO</tspan>.</text>
</svg>